<svg width="42" height="42" viewBox="0 0 42 42" fill="none" xmlns="http://www.w3.org/2000/svg">
<circle cx="21" cy="21" r="20.75" stroke="white" stroke-width="0.5"/>
<g clip-path="url(#clip0_128_1909)">
<path d="M21.525 20.975C23.8204 20.975 25.6812 19.1142 25.6812 16.8188C25.6812 14.5233 23.8204 12.6625 21.525 12.6625C19.2295 12.6625 17.3687 14.5233 17.3687 16.8188C17.3687 19.1142 19.2295 20.975 21.525 20.975Z" stroke="white" stroke-width="1.5"/>
<path d="M25.6812 22.6375H25.9738C26.5815 22.6377 27.1683 22.8598 27.6238 23.262C28.0793 23.6643 28.3723 24.219 28.4476 24.822L28.7726 27.4189C28.8019 27.6528 28.781 27.8903 28.7114 28.1155C28.6419 28.3408 28.5252 28.5487 28.3692 28.7254C28.2131 28.9021 28.0213 29.0437 27.8063 29.1406C27.5914 29.2375 27.3584 29.2876 27.1226 29.2875H15.9273C15.6916 29.2876 15.4585 29.2375 15.2436 29.1406C15.0287 29.0437 14.8368 28.9021 14.6808 28.7254C14.5247 28.5487 14.408 28.3408 14.3385 28.1155C14.2689 27.8903 14.2481 27.6528 14.2773 27.4189L14.6015 24.822C14.6769 24.2187 14.9701 23.6638 15.4259 23.2615C15.8818 22.8592 16.469 22.6373 17.0769 22.6375H17.3687" stroke="white" stroke-width="1.5" stroke-linecap="round" stroke-linejoin="round"/>
</g>
<defs>
<clipPath id="clip0_128_1909">
<rect width="19.95" height="19.95" fill="white" transform="translate(11.55 11)"/>
</clipPath>
</defs>
</svg>
